<mxfile host="app.diagrams.net" modified="2020-11-19T03:32:29.814Z" agent="5.0 (Windows NT 10.0; Win64; x64) AppleWebKit/537.36 (KHTML, like Gecko) Chrome/86.0.4240.198 Safari/537.36" etag="3idHxYUcFxViEhlEa4H8" version="13.9.9" type="github">
  <diagram id="Azpr__abmt1RAFoowWVq" name="Page-1">
    <mxGraphModel dx="1038" dy="548" grid="1" gridSize="10" guides="1" tooltips="1" connect="1" arrows="1" fold="1" page="1" pageScale="1" pageWidth="850" pageHeight="1100" math="0" shadow="0">
      <root>
        <mxCell id="0" />
        <mxCell id="1" parent="0" />
        <mxCell id="5H25SNS-HUQdZX9KZK19-1" value="" style="ellipse;html=1;shape=endState;fillColor=#000000;strokeColor=#ff0000;" vertex="1" parent="1">
          <mxGeometry x="431.25" y="830" width="30" height="30" as="geometry" />
        </mxCell>
        <mxCell id="5H25SNS-HUQdZX9KZK19-2" value="Yes" style="edgeStyle=orthogonalEdgeStyle;rounded=0;orthogonalLoop=1;jettySize=auto;html=1;exitX=0;exitY=0.5;exitDx=0;exitDy=0;" edge="1" parent="1" source="5H25SNS-HUQdZX9KZK19-4" target="5H25SNS-HUQdZX9KZK19-15">
          <mxGeometry relative="1" as="geometry" />
        </mxCell>
        <mxCell id="5H25SNS-HUQdZX9KZK19-3" value="No" style="edgeStyle=orthogonalEdgeStyle;rounded=0;orthogonalLoop=1;jettySize=auto;html=1;entryX=0.5;entryY=0;entryDx=0;entryDy=0;" edge="1" parent="1" source="5H25SNS-HUQdZX9KZK19-4" target="5H25SNS-HUQdZX9KZK19-7">
          <mxGeometry relative="1" as="geometry" />
        </mxCell>
        <mxCell id="5H25SNS-HUQdZX9KZK19-4" value="Account in compliance?" style="rhombus;whiteSpace=wrap;html=1;" vertex="1" parent="1">
          <mxGeometry x="383.93" y="420" width="114.63" height="70" as="geometry" />
        </mxCell>
        <mxCell id="5H25SNS-HUQdZX9KZK19-5" style="edgeStyle=orthogonalEdgeStyle;rounded=0;orthogonalLoop=1;jettySize=auto;html=1;entryX=0.5;entryY=0;entryDx=0;entryDy=0;exitX=0.5;exitY=1;exitDx=0;exitDy=0;" edge="1" parent="1" source="5H25SNS-HUQdZX9KZK19-13" target="5H25SNS-HUQdZX9KZK19-1">
          <mxGeometry relative="1" as="geometry" />
        </mxCell>
        <mxCell id="5H25SNS-HUQdZX9KZK19-6" style="edgeStyle=orthogonalEdgeStyle;rounded=0;orthogonalLoop=1;jettySize=auto;html=1;exitX=0.5;exitY=1;exitDx=0;exitDy=0;entryX=1;entryY=0.75;entryDx=0;entryDy=0;" edge="1" parent="1" source="5H25SNS-HUQdZX9KZK19-7" target="5H25SNS-HUQdZX9KZK19-16">
          <mxGeometry relative="1" as="geometry" />
        </mxCell>
        <mxCell id="5H25SNS-HUQdZX9KZK19-7" value="Apply restrictions" style="rounded=1;whiteSpace=wrap;html=1;fillColor=#FFFFFF;" vertex="1" parent="1">
          <mxGeometry x="500" y="540" width="200" height="25" as="geometry" />
        </mxCell>
        <mxCell id="5H25SNS-HUQdZX9KZK19-8" style="edgeStyle=orthogonalEdgeStyle;rounded=0;orthogonalLoop=1;jettySize=auto;html=1;entryX=0.5;entryY=0;entryDx=0;entryDy=0;" edge="1" parent="1" source="5H25SNS-HUQdZX9KZK19-11" target="5H25SNS-HUQdZX9KZK19-4">
          <mxGeometry relative="1" as="geometry">
            <mxPoint x="441.25" y="420" as="targetPoint" />
          </mxGeometry>
        </mxCell>
        <mxCell id="5H25SNS-HUQdZX9KZK19-9" style="edgeStyle=orthogonalEdgeStyle;rounded=0;orthogonalLoop=1;jettySize=auto;html=1;entryX=1;entryY=0.25;entryDx=0;entryDy=0;" edge="1" parent="1" source="5H25SNS-HUQdZX9KZK19-10" target="5H25SNS-HUQdZX9KZK19-26">
          <mxGeometry relative="1" as="geometry" />
        </mxCell>
        <mxCell id="5H25SNS-HUQdZX9KZK19-10" value="Get latest quotes for positions" style="rounded=1;whiteSpace=wrap;html=1;fillColor=#FFFFFF;" vertex="1" parent="1">
          <mxGeometry x="260" y="172.5" width="180" height="25" as="geometry" />
        </mxCell>
        <mxCell id="5H25SNS-HUQdZX9KZK19-11" value="Update margin &lt;br&gt;requirements&amp;nbsp;and equity" style="rounded=1;whiteSpace=wrap;html=1;fillColor=#FFFFFF;" vertex="1" parent="1">
          <mxGeometry x="341.25" y="330" width="200" height="40" as="geometry" />
        </mxCell>
        <mxCell id="5H25SNS-HUQdZX9KZK19-12" style="edgeStyle=orthogonalEdgeStyle;rounded=0;orthogonalLoop=1;jettySize=auto;html=1;entryX=0.5;entryY=0;entryDx=0;entryDy=0;" edge="1" parent="1" source="5H25SNS-HUQdZX9KZK19-26" target="5H25SNS-HUQdZX9KZK19-11">
          <mxGeometry relative="1" as="geometry">
            <mxPoint x="441.25" y="285" as="sourcePoint" />
            <mxPoint x="441.25" y="400" as="targetPoint" />
          </mxGeometry>
        </mxCell>
        <mxCell id="5H25SNS-HUQdZX9KZK19-13" value="Send notifications" style="rounded=1;whiteSpace=wrap;html=1;fillColor=#FFFFFF;" vertex="1" parent="1">
          <mxGeometry x="346.25" y="755" width="200" height="25" as="geometry" />
        </mxCell>
        <mxCell id="5H25SNS-HUQdZX9KZK19-14" style="edgeStyle=orthogonalEdgeStyle;rounded=0;orthogonalLoop=1;jettySize=auto;html=1;exitX=0.5;exitY=1;exitDx=0;exitDy=0;entryX=1;entryY=0.25;entryDx=0;entryDy=0;" edge="1" parent="1" source="5H25SNS-HUQdZX9KZK19-15" target="5H25SNS-HUQdZX9KZK19-16">
          <mxGeometry relative="1" as="geometry">
            <mxPoint x="530" y="470" as="targetPoint" />
          </mxGeometry>
        </mxCell>
        <mxCell id="5H25SNS-HUQdZX9KZK19-15" value="Remove restrictions" style="rounded=1;whiteSpace=wrap;html=1;fillColor=#FFFFFF;" vertex="1" parent="1">
          <mxGeometry x="210" y="540" width="200" height="25" as="geometry" />
        </mxCell>
        <mxCell id="5H25SNS-HUQdZX9KZK19-16" value="" style="rounded=1;whiteSpace=wrap;html=1;fillColor=#000000;rotation=-90;" vertex="1" parent="1">
          <mxGeometry x="436.25" y="600" width="20" height="200" as="geometry" />
        </mxCell>
        <mxCell id="5H25SNS-HUQdZX9KZK19-17" style="edgeStyle=orthogonalEdgeStyle;rounded=0;orthogonalLoop=1;jettySize=auto;html=1;entryX=0.5;entryY=0;entryDx=0;entryDy=0;exitX=0;exitY=0.5;exitDx=0;exitDy=0;" edge="1" parent="1" source="5H25SNS-HUQdZX9KZK19-16" target="5H25SNS-HUQdZX9KZK19-13">
          <mxGeometry relative="1" as="geometry">
            <mxPoint x="605" y="620" as="sourcePoint" />
            <mxPoint x="635" y="600" as="targetPoint" />
          </mxGeometry>
        </mxCell>
        <mxCell id="5H25SNS-HUQdZX9KZK19-18" style="edgeStyle=orthogonalEdgeStyle;rounded=0;orthogonalLoop=1;jettySize=auto;html=1;exitX=0.5;exitY=1;exitDx=0;exitDy=0;entryX=1;entryY=0.5;entryDx=0;entryDy=0;" edge="1" parent="1" source="5H25SNS-HUQdZX9KZK19-19" target="5H25SNS-HUQdZX9KZK19-25">
          <mxGeometry relative="1" as="geometry" />
        </mxCell>
        <mxCell id="5H25SNS-HUQdZX9KZK19-19" value="" style="ellipse;whiteSpace=wrap;html=1;aspect=fixed;fillColor=#000000;" vertex="1" parent="1">
          <mxGeometry x="433.75" y="10" width="40" height="40" as="geometry" />
        </mxCell>
        <mxCell id="5H25SNS-HUQdZX9KZK19-20" style="edgeStyle=orthogonalEdgeStyle;rounded=0;orthogonalLoop=1;jettySize=auto;html=1;exitX=0.5;exitY=1;exitDx=0;exitDy=0;exitPerimeter=0;entryX=1;entryY=0.75;entryDx=0;entryDy=0;" edge="1" parent="1" source="5H25SNS-HUQdZX9KZK19-21" target="5H25SNS-HUQdZX9KZK19-26">
          <mxGeometry relative="1" as="geometry" />
        </mxCell>
        <mxCell id="5H25SNS-HUQdZX9KZK19-21" value="" style="html=1;shape=mxgraph.sysml.timeEvent;strokeWidth=2;verticalLabelPosition=bottom;verticalAlignment=top;" vertex="1" parent="1">
          <mxGeometry x="540" y="172.5" width="35" height="40" as="geometry" />
        </mxCell>
        <mxCell id="5H25SNS-HUQdZX9KZK19-22" value="[ Scheduled Time &amp;gt;= Timer ]" style="text;html=1;strokeColor=none;fillColor=none;align=center;verticalAlign=middle;whiteSpace=wrap;rounded=0;" vertex="1" parent="1">
          <mxGeometry x="600" y="182.5" width="165" height="20" as="geometry" />
        </mxCell>
        <mxCell id="5H25SNS-HUQdZX9KZK19-23" style="edgeStyle=orthogonalEdgeStyle;rounded=0;orthogonalLoop=1;jettySize=auto;html=1;exitX=0;exitY=0.75;exitDx=0;exitDy=0;entryX=0.5;entryY=0;entryDx=0;entryDy=0;entryPerimeter=0;" edge="1" parent="1" source="5H25SNS-HUQdZX9KZK19-25" target="5H25SNS-HUQdZX9KZK19-21">
          <mxGeometry relative="1" as="geometry" />
        </mxCell>
        <mxCell id="5H25SNS-HUQdZX9KZK19-24" style="edgeStyle=orthogonalEdgeStyle;rounded=0;orthogonalLoop=1;jettySize=auto;html=1;exitX=0;exitY=0.25;exitDx=0;exitDy=0;" edge="1" parent="1" source="5H25SNS-HUQdZX9KZK19-25" target="5H25SNS-HUQdZX9KZK19-10">
          <mxGeometry relative="1" as="geometry" />
        </mxCell>
        <mxCell id="5H25SNS-HUQdZX9KZK19-25" value="" style="rounded=1;whiteSpace=wrap;html=1;fillColor=#000000;rotation=-90;" vertex="1" parent="1">
          <mxGeometry x="443.75" y="-85" width="20" height="415" as="geometry" />
        </mxCell>
        <mxCell id="5H25SNS-HUQdZX9KZK19-26" value="" style="rounded=1;whiteSpace=wrap;html=1;fillColor=#000000;rotation=-90;" vertex="1" parent="1">
          <mxGeometry x="443.75" y="50" width="20" height="415" as="geometry" />
        </mxCell>
      </root>
    </mxGraphModel>
  </diagram>
</mxfile>
